HIERARCHY
ROOT hip
{
	OFFSET 0.000000 0.000000 0.000000 
	CHANNELS 6 Xposition Yposition Zposition Xrotation Zrotation Yrotation
	JOINT abdomen
	{
		OFFSET 0.000000 3.402643 0.000000 
		CHANNELS 3 Xrotation Zrotation Yrotation
		JOINT chest
		{
			OFFSET 0.000000 8.438565 -0.680529 
			CHANNELS 3 Xrotation Zrotation Yrotation
			JOINT neck
			{
				OFFSET 0.000000 10.207942 -0.272212 
				CHANNELS 3 Xrotation Zrotation Yrotation
				JOINT head
				{
					OFFSET 0.000000 3.130431 0.000000 
					CHANNELS 3 Xrotation Zrotation Yrotation
					End Site
					{
						OFFSET 0.000000 3.130435 0.000000 
					}
				}
			}
			JOINT lCollar
			{
				OFFSET 3.470700 6.669187 -0.816635 
				CHANNELS 3 Yrotation Zrotation Xrotation
				JOINT lShldr
				{
					OFFSET 3.198488 0.000000 0.000000 
					CHANNELS 3 Zrotation Yrotation Xrotation
					JOINT lForeArm
					{
						OFFSET 10.139888 0.000000 0.000000 
						CHANNELS 3 Yrotation Zrotation Xrotation
						JOINT lHand
						{
							OFFSET 8.370511 0.000000 0.000000 
							CHANNELS 3 Zrotation Yrotation Xrotation
							End Site
							{
								OFFSET 4.083176 0.000000 0.000000 
							}
						}
					}
				}
			}
			JOINT rCollar
			{
				OFFSET -3.470700 6.669187 -0.816635 
				CHANNELS 3 Yrotation Zrotation Xrotation
				JOINT rShldr
				{
					OFFSET -3.198488 0.000000 0.000000 
					CHANNELS 3 Zrotation Yrotation Xrotation
					JOINT rForeArm
					{
						OFFSET -10.139888 0.000000 0.000000 
						CHANNELS 3 Yrotation Zrotation Xrotation
						JOINT rHand
						{
							OFFSET -8.370511 0.000000 0.000000 
							CHANNELS 3 Zrotation Yrotation Xrotation
							End Site
							{
								OFFSET -4.083176 0.000000 0.000000 
							}
						}
					}
				}
			}
		}
	}
	JOINT lThigh
	{
		OFFSET 5.308129 -1.633274 1.361059 
		CHANNELS 3 Xrotation Zrotation Yrotation
		JOINT lShin
		{
			OFFSET -2.041588 -20.007561 0.000000 
			CHANNELS 3 Xrotation Zrotation Yrotation
			JOINT lFoot
			{
				OFFSET 0.000000 -19.190928 -1.224953 
				CHANNELS 3 Xrotation Yrotation Zrotation
				End Site
				{
					OFFSET 0.000000 -2.449906 4.627600 
				}
			}
		}
	}
	JOINT rThigh
	{
		OFFSET -5.308129 -1.633274 1.361059 
		CHANNELS 3 Xrotation Zrotation Yrotation
		JOINT rShin
		{
			OFFSET 2.041588 -20.007561 0.000000 
			CHANNELS 3 Xrotation Zrotation Yrotation
			JOINT rFoot
			{
				OFFSET 0.000000 -19.190928 -1.224953 
				CHANNELS 3 Xrotation Yrotation Zrotation
				End Site
				{
					OFFSET 0.000000 -2.449906 4.627600 
				}
			}
		}
	}
}
MOTION
Frames: 18
Frame Time: 0.033333
-1.207803 52.592258 1.325351 -0.722656 -5.458984 -33.691402 38.180168 -7.646765 -3.480789 -10.654297 10.058594 6.183346 51.553619 8.070152 2.616707 -80.830078 -5.117187 1.542098 2.000000 -2.000000 0.000000 -53.662109 19.658203 -2.359996 -51.359676 -1.408138 -2.056157 -14.471057 58.960468 -7.611814 -2.000000 2.000000 0.000000 49.570313 -23.847658 -5.785198 51.867069 1.329008 -2.041443 10.023417 -46.362125 -12.328673 -19.828960 16.752699 6.291909 47.941326 -4.133873 -4.133500 27.836163 21.430922 -11.744718 5.969569 -0.254244 -16.969177 -2.780511 5.914346 -0.248097 6.102736 -7.368435 1.769744 
-2.494964 52.742516 2.693351 -0.361328 -4.589844 -34.785156 37.412560 -8.253944 -3.088506 -10.820313 10.410157 6.787109 51.553619 8.070152 2.616707 -81.630859 -6.845702 1.953125 2.000000 -2.000000 0.000000 -52.724606 20.917971 -1.627371 -51.698349 -1.548117 -1.940162 -13.522580 59.853138 -7.155009 -2.000000 2.000000 0.000000 50.234371 -24.746094 -4.365235 51.505756 1.319260 -2.042010 12.156085 -47.308327 -15.139570 -19.447636 15.648830 7.047112 41.597763 -4.383752 -3.846645 20.317858 20.229490 -9.960582 7.451639 -0.342407 -15.916948 -3.285721 5.919345 -0.293924 4.875044 -7.020978 1.599179 
-3.450544 52.726696 3.843636 -0.205078 -3.876953 -35.869148 36.837326 -8.797182 -2.838052 -10.800781 10.576172 7.548829 51.553619 8.070152 2.616707 -81.923828 -8.515624 2.216797 2.000000 -2.000000 0.000000 -51.591797 22.314453 -0.465042 -51.698364 -1.538368 -1.940733 -12.616169 60.972088 -6.493674 -2.000000 2.000000 0.000000 50.859379 -25.654299 -3.129227 51.159214 1.309017 -1.866367 14.277010 -48.083504 -17.697388 -18.904156 14.353437 7.657948 34.371311 -4.796402 -3.076563 14.166704 18.455521 -8.671798 9.332844 -0.605943 -15.035680 -5.179253 5.939830 -0.328779 3.706035 -6.420212 1.905733 
-4.809674 52.789959 5.480794 -0.205078 -3.173828 -36.738281 36.061577 -9.416863 -2.439269 -10.966797 10.917969 8.156146 51.553619 8.070152 2.616707 -81.435547 -9.697266 1.883121 2.000000 -2.000000 0.000000 -51.035156 23.330076 -0.097656 -51.873856 -1.557297 -1.929847 -12.186006 61.796013 -6.583864 -2.000000 2.000000 0.000000 51.328129 -26.230469 -2.543379 50.811005 1.159862 -1.992611 15.829354 -48.325481 -19.609459 -16.663372 12.971754 8.586301 25.161297 -5.264242 -2.878222 10.927070 17.055019 -7.414245 11.372660 -1.045578 -14.399104 -5.071798 5.851793 -0.313617 2.479809 -5.892571 2.395261 
-6.132257 52.750416 7.117875 -0.205078 -2.646484 -37.451172 35.516655 -10.092289 -2.282425 -10.937500 11.259766 8.964845 51.553619 8.070152 2.616707 -80.341797 -10.693358 1.052876 2.000000 -2.000000 0.000000 -51.914066 24.785158 -2.851563 -51.698364 -1.538368 -1.940733 -13.802624 62.300671 -7.775052 -2.000000 2.000000 0.000000 51.367184 -26.503906 -3.203124 50.803410 1.330714 -2.070679 15.067824 -48.644035 -18.183409 -11.727185 11.287271 9.724990 10.190491 -5.703731 -1.328157 13.839069 14.813770 -6.591091 13.512124 -1.689904 -14.126918 -5.073349 5.863388 -0.314318 1.414224 -5.579246 2.266124 
-7.320514 52.568539 8.673536 -0.722656 -2.285156 -37.607811 34.955029 -10.651318 -2.019688 -10.917968 11.416017 9.386698 51.553619 8.070152 2.616707 -79.003906 -11.269530 0.251998 2.000000 -2.000000 0.000000 -53.535156 26.162111 -6.040614 -51.548595 -1.278470 -2.181065 -17.204203 61.963852 -10.986585 -2.000000 2.000000 0.000000 51.230469 -26.298828 -4.193779 51.338341 1.169612 -1.992043 14.789400 -48.531754 -17.259344 -5.332121 9.062601 10.691694 -5.297836 -5.743113 0.297388 18.489374 13.188764 -6.282301 17.281237 -1.797596 -14.330884 -7.162519 5.883245 -0.522560 0.186607 -5.481960 1.887326 
-8.416031 52.331295 10.182286 -1.611328 -2.285156 -37.753910 34.746666 -11.339049 -1.859800 -10.898438 11.748048 9.667969 51.553619 8.070152 2.616707 -77.636719 -11.689451 -0.480494 2.000000 -2.000000 0.000000 -54.052734 26.699219 -6.987801 -51.359688 -1.398389 -2.056726 -18.794329 62.056683 -12.039482 -2.000000 2.000000 0.000000 51.005859 -25.644531 -5.751953 51.689903 1.169611 -1.992043 13.492929 -48.305252 -14.844426 -0.771837 7.607442 11.146469 -17.262585 -5.365572 1.516787 20.939674 11.422757 -6.093867 21.150650 -2.109579 -14.570085 -10.170390 5.844903 -0.857666 0.214524 -5.230331 1.585885 
-8.522890 52.434109 10.516309 -2.470703 -2.285156 -37.695313 35.377293 -12.497970 -2.282370 -10.703124 11.914063 9.435610 51.553619 8.070152 2.616707 -77.441406 -10.751952 -0.263672 2.000000 -2.000000 0.000000 -52.783203 25.087891 -4.658202 -51.008408 -1.389209 -2.067040 -17.622833 61.786846 -11.896830 -2.000000 2.000000 0.000000 51.230465 -24.130859 -6.679688 51.875179 1.178791 -1.981731 12.689425 -47.775211 -13.597186 -1.367136 7.677362 10.383351 -11.463945 -5.660834 0.951926 17.984528 11.581676 -6.819898 19.967939 -3.232600 -15.702875 -5.072054 5.852074 -0.303868 -0.862159 -5.268488 -1.741157 
-8.926987 52.805779 10.856915 -3.349609 -2.285156 -37.510155 36.625023 -13.604457 -3.181941 -10.351563 11.884767 8.437499 51.553619 8.070152 2.616707 -78.222656 -9.003905 0.703125 2.000000 -2.000000 0.000000 -50.546871 22.734375 -1.070442 -50.643959 -1.529188 -1.951048 -15.217678 61.925022 -10.085917 -2.000000 2.000000 0.000000 52.031246 -22.841799 -7.402343 51.689903 1.169611 -1.992043 12.378845 -46.911057 -13.216977 -2.979033 8.154774 9.082683 -4.599992 -5.612410 0.209039 14.694351 12.392318 -8.244496 16.408615 -4.824026 -16.831671 7.265175 5.777842 0.693807 -0.778296 -6.318762 -4.853590 
-9.546408 53.098373 11.903889 -3.876953 -2.285156 -37.480469 37.449238 -13.908045 -3.710057 -10.156250 12.041017 7.834069 51.553619 8.070152 2.616707 -78.466797 -8.320312 1.679688 2.000000 -2.000000 0.000000 -49.355469 20.449217 3.574219 -50.468609 -1.588820 -1.967116 -12.741757 61.570057 -9.191317 -2.000000 2.000000 0.000000 52.578125 -23.730469 -9.076196 51.523663 1.209559 -2.341954 11.964423 -46.074871 -12.632883 -2.205830 7.911812 8.052422 -2.150639 -5.751486 -0.009058 13.508605 13.120659 -8.914539 12.057927 -6.718021 -18.348501 17.473360 4.897131 1.942697 6.047439 -6.506073 -7.829373 
-10.165000 53.264439 13.373159 -4.052734 -2.470703 -37.451172 37.438911 -13.684875 -3.746558 -10.302735 12.382813 7.744140 51.553619 8.070152 2.616707 -78.339844 -8.652343 2.148437 2.000000 -2.000000 0.000000 -49.179688 18.720705 6.513672 -50.455460 -1.718476 -1.842187 -11.378760 60.758369 -9.185524 -2.000000 2.000000 0.000000 52.919922 -25.419922 -10.472263 51.338570 1.199427 -2.000087 12.058594 -45.675728 -13.332566 -0.420024 7.375572 7.607012 -1.416439 -5.763278 -0.092783 12.473533 13.536072 -9.427157 7.976568 -9.461314 -19.472971 25.396875 4.639861 2.401098 19.896208 -6.043052 -10.452353 
-10.930856 52.813679 15.002941 -3.701171 -2.470703 -37.656872 37.438164 -13.231626 -3.838055 -10.283203 12.714844 7.851563 51.553619 8.070152 2.616707 -78.398438 -8.974608 2.656250 2.000000 -2.000000 0.000000 -48.974609 16.953123 6.923828 -50.982784 -1.728224 -1.841617 -11.713651 58.701767 -10.817264 -2.000000 2.000000 0.000000 53.251953 -26.035156 -11.806641 51.168987 1.339804 -2.226608 11.144019 -45.907410 -12.474794 1.647959 7.180961 8.235833 -1.778743 -5.601183 -0.066353 10.543840 13.214800 -9.400797 4.195693 -10.893861 -21.588564 30.716898 4.604581 2.909103 24.728027 -9.243365 -12.038485 
-11.789536 52.963943 16.718967 -3.007812 -2.646484 -37.852013 37.407494 -12.649617 -3.827104 -10.449220 12.890626 7.880858 51.553619 8.070152 2.616707 -78.916016 -8.886717 3.095703 2.000000 -2.000000 0.000000 -48.662109 14.726563 5.693359 -51.509850 -1.737404 -1.831301 -12.572303 55.568726 -12.684651 -2.000000 2.000000 0.000000 53.710934 -26.562500 -13.037110 51.699707 1.210126 -2.351700 11.082323 -47.137295 -12.623431 4.334265 7.049556 9.582716 -4.022517 -5.598678 0.176682 9.595232 12.261101 -9.116997 0.173593 -12.182174 -24.086927 35.286430 4.516536 3.198983 26.956596 -13.605407 -8.447611 
-12.731305 53.177452 18.501686 -1.943359 -2.832031 -38.252430 37.202747 -12.061746 -3.804053 -10.595702 13.242188 7.951456 51.553619 8.070152 2.616707 -79.433594 -8.798827 3.349610 2.000000 -2.000000 0.000000 -48.066406 12.753907 4.142782 -52.388477 -1.746583 -1.820985 -13.393630 52.689804 -14.796032 -2.000000 2.000000 0.000000 54.013672 -26.562500 -14.184052 51.872044 1.388549 -2.223773 11.126505 -47.821598 -12.840858 7.462543 6.899250 10.429081 -6.203506 -5.249414 0.576469 8.208388 11.999922 -9.059233 -4.033566 -13.261189 -26.292435 38.622723 4.418357 2.887139 27.055201 -17.257616 -2.696172 
-13.710852 53.248623 20.302135 -0.908203 -2.988281 -38.466797 37.018864 -11.461166 -3.787210 -10.556640 13.574220 8.068698 51.553619 8.070152 2.616707 -80.117188 -8.515625 3.730469 2.000000 -2.000000 0.000000 -47.744141 10.986328 3.810455 -53.108547 -1.566397 -2.086039 -13.701247 50.506496 -16.030949 -2.000000 2.000000 0.000000 54.365234 -26.855471 -15.609881 51.519089 1.229157 -2.174373 11.292789 -47.755444 -13.149284 10.835302 6.893363 11.103398 -10.539951 -5.287742 1.171709 8.488517 11.146021 -9.017655 -7.539169 -13.906919 -29.017006 40.201366 4.193861 3.613415 25.576958 -20.912924 2.488875 
-14.540016 53.375153 21.816765 0.000000 -3.173828 -38.701172 36.798725 -10.735029 -3.661160 -10.712892 13.925781 8.134768 51.553619 8.070152 2.616707 -80.830078 -8.388671 4.022013 2.000000 -2.000000 0.000000 -47.392578 9.169922 3.671875 -53.987144 -1.595076 -2.074588 -14.068255 48.783405 -16.986773 -2.000000 2.000000 0.000000 55.029297 -26.748051 -16.830570 51.178978 0.859993 -1.882787 12.130765 -48.108925 -13.308764 11.885596 7.155641 12.057426 -9.123682 -5.326762 0.722899 6.000977 10.761911 -8.994266 -10.107001 -13.967602 -30.430166 38.946415 4.296027 3.495046 23.578646 -23.010675 5.925156 
-15.511786 53.446331 23.434399 0.527344 -3.339839 -38.916626 36.601524 -10.005225 -3.543115 -10.869141 14.267579 8.391079 51.553619 8.070152 2.616707 -81.367188 -8.457031 4.335938 2.000000 -2.000000 0.000000 -46.962894 7.460938 3.857506 -54.873676 -1.433973 -1.995978 -14.196150 47.798878 -17.259037 -2.000000 2.000000 0.000000 54.843750 -27.011719 -17.797403 51.348141 1.219875 -2.351134 12.846858 -48.519947 -13.717150 12.105738 7.606119 12.672689 -5.163150 -5.577000 0.479850 3.308466 10.870803 -8.035304 -9.852731 -12.318100 -30.074314 30.324015 4.803391 2.916792 18.682539 -21.043335 5.177932 
-16.376783 53.311882 24.569185 0.703125 -3.515625 -38.750599 36.440243 -9.324252 -3.687392 -11.025392 14.453126 8.398438 51.553619 8.070152 2.616707 -81.630859 -8.876951 4.658203 2.000000 -2.000000 0.000000 -47.001953 6.005859 3.867187 -55.576504 -1.452902 -1.985095 -14.070663 47.220474 -17.218157 -2.000000 2.000000 0.000000 55.097652 -27.285154 -18.769531 51.163040 1.209745 -2.009266 13.731366 -48.523952 -14.351409 12.389750 8.270799 12.962543 -2.658102 -5.405204 0.040968 0.577907 10.539726 -9.072758 -7.450819 -8.933276 -28.139957 15.317455 5.447457 1.469543 11.617728 -15.701225 3.070181 
